<svg width="102" height="25" viewBox="0 0 102 25" fill="none" xmlns="http://www.w3.org/2000/svg">
<path fill-rule="evenodd" clip-rule="evenodd" d="M41.0067 0C39.9064 0 39.0134 0.898125 39.0134 2.00474C39.0134 3.16749 39.9064 4.0576 41.0067 4.00949C42.107 4.00949 43 3.11136 43 2.00474C43 0.898125 42.107 0 41.0067 0ZM14.926 8.17134C15.6436 9.10154 16.1539 10.1681 16.5207 11.3468L16.5366 11.3148C16.8954 12.5016 17.0549 13.7846 17.0549 15.1639C17.0549 16.5512 16.8954 17.8342 16.5446 19.013C16.1778 20.1918 15.6675 21.2743 14.9499 22.1404C14.2323 23.0145 13.3553 23.7281 12.2789 24.2414C11.5613 24.5541 10.7879 24.8107 9.96662 24.915C9.96662 24.915 8.42778 25.1635 6.63378 24.8107C6.01984 24.6984 5.45374 24.5541 4.93547 24.2975C4.88763 24.2975 4.88763 24.2975 4.83979 24.2414C4.83979 24.1932 4.78398 24.1932 4.78398 24.1932H4.74411C4.42518 24.0409 4.17004 23.8885 3.86705 23.68C3.19729 23.2149 2.63119 22.7097 2.11292 22.0923C1.39533 21.2102 0.885036 20.1918 0.518264 18.9649C0.159466 17.7861 0 16.503 0 15.1158C0 13.7846 0.159466 12.4535 0.510291 11.2827C0.877063 10.0478 1.38735 9.02937 2.10495 8.09916C2.82255 7.23312 3.69961 6.51141 4.73614 5.99819C5.69293 5.54913 6.7773 5.2845 8.00519 5.22837C8.83441 5.18026 9.55201 5.22837 10.1101 5.3246L10.8676 5.48498C10.8676 5.54111 10.9234 5.54111 10.9633 5.54111C11.0271 5.59724 11.0749 5.59724 11.1228 5.59724C11.2264 5.59724 11.338 5.6614 11.338 5.6614C11.641 5.74159 11.9998 5.90197 12.2948 6.06234C13.3314 6.56754 14.2084 7.24113 14.926 8.17134ZM35.9835 11.3468C35.6167 10.1681 35.1064 9.10154 34.3888 8.17134C33.6712 7.24113 32.7942 6.56754 31.7576 6.06234C31.4626 5.90197 31.1038 5.74159 30.8009 5.6614C30.8009 5.6614 30.6892 5.59724 30.5856 5.59724C30.5377 5.59724 30.4819 5.59724 30.4261 5.54111C30.3783 5.54111 30.3304 5.54111 30.3304 5.48498L29.565 5.3246C29.0069 5.22837 28.2893 5.18026 27.468 5.22837C26.2401 5.2845 25.1558 5.54913 24.199 5.99819C23.1624 6.51141 22.2854 7.23312 21.5678 8.09916C20.8502 9.02937 20.3399 10.0478 19.9731 11.2827C19.6223 12.4535 19.4628 13.7846 19.4628 15.1158C19.4628 16.503 19.6223 17.7861 19.9811 18.9649C20.3479 20.1437 20.906 21.2102 21.5757 22.0923C22.094 22.7097 22.6521 23.2149 23.3299 23.68C23.6329 23.8885 24.2468 24.1932 24.2468 24.1932C24.2468 24.1932 24.2946 24.1932 24.2946 24.2414C24.3288 24.2414 24.3447 24.2575 24.3594 24.2724C24.3722 24.2854 24.3841 24.2975 24.4063 24.2975C24.9245 24.5541 25.4827 24.6984 26.1046 24.8107C27.8986 25.1635 29.4374 24.915 29.4374 24.915C30.2587 24.8107 31.0321 24.5541 31.7497 24.2414C32.8261 23.7281 33.6952 23.0145 34.4207 22.1404C35.1383 21.2743 35.6486 20.1918 36.0154 19.013C36.3662 17.8342 36.5177 16.5512 36.5177 15.1639C36.5177 13.7846 36.3184 12.5016 36.0074 11.3148L35.9835 11.3468ZM23.9677 12.4695C24.175 11.6676 24.4302 10.8898 24.789 10.2723C25.1478 9.66286 25.6102 9.14965 26.1205 8.79681C26.6388 8.43596 27.2527 8.23549 27.9145 8.23549C28.5843 8.23549 29.1504 8.37983 29.6686 8.74068C30.1789 9.09352 30.5856 9.54258 30.9444 10.1199C31.3032 10.7374 31.5583 11.403 31.7656 12.2209C31.9809 13.0389 32.0846 13.8648 32.0846 14.787V15.0917C32.0846 16.0139 31.9809 16.9361 31.8294 17.754C31.6221 18.58 31.367 19.2937 31.0082 19.9191C30.6494 20.5286 30.1869 20.9857 29.6686 21.3465C29.1584 21.7074 28.5524 21.8597 27.8747 21.8597C27.2049 21.8597 26.5989 21.6993 26.0807 21.3465C25.5624 20.9857 25.0999 20.5286 24.7411 19.9031C24.3744 19.2937 24.1192 18.58 23.9119 17.754C23.7126 16.9361 23.6568 16.0139 23.6568 15.0917C23.7126 14.2096 23.8162 13.2955 23.9757 12.4775L23.9677 12.4695ZM4.56073 12.4695C4.76006 11.6676 5.0152 10.8898 5.374 10.2723C5.7328 9.66286 6.19525 9.14965 6.71352 8.79681C7.22381 8.43596 7.82978 8.23549 8.50751 8.23549C9.17727 8.23549 9.74337 8.37983 10.2616 8.74068C10.764 9.09352 11.1786 9.54258 11.5374 10.1199C11.8962 10.7374 12.1513 11.403 12.3586 12.2209C12.5659 13.0389 12.6775 13.8648 12.6775 14.787L12.6616 15.0917C12.6616 16.0139 12.5659 16.9361 12.4065 17.754C12.2071 18.58 11.944 19.2937 11.5852 19.9191C11.2344 20.5286 10.7719 20.9857 10.2616 21.3465C9.75134 21.7074 9.12943 21.8597 8.46764 21.8597C7.78991 21.8597 7.17597 21.6993 6.6577 21.3465C6.14741 20.9857 5.68496 20.5286 5.32616 19.9031C5.00723 19.3979 4.76803 18.6842 4.55275 17.8182C4.34545 16.9922 4.28963 16.054 4.28963 15.1398C4.28963 14.2176 4.34545 13.2955 4.54478 12.4775L4.56073 12.4695Z" fill="white"/>
<path fill-rule="evenodd" clip-rule="evenodd" d="M45.2789 5.22177L43.2657 3.00409L43 2.81535L43.2094 0L46.3097 0.0471846L49.6435 3.61749V15.2328L49.5469 15.8776L45.2789 13.6757V5.22177ZM73.8499 8.34382C74.5747 9.25606 75.09 10.302 75.4605 11.458L75.4766 11.4265C75.8389 12.5904 76 13.8487 76 15.2013C76 16.5618 75.8389 17.8201 75.4846 18.9761C75.1142 20.1321 74.5988 21.1938 73.8741 22.0431C73.1493 22.9003 72.2635 23.6002 71.1764 24.1035C70.4517 24.4102 69.6706 24.6618 68.8411 24.7641C68.8411 24.7641 67.287 25.0079 65.4751 24.6618C64.8551 24.5517 64.2833 24.4102 63.7679 24.1585C63.7387 24.1585 63.7246 24.1437 63.7111 24.1294C63.6985 24.1162 63.6865 24.1035 63.6632 24.1035C63.6632 24.0563 63.6069 24.0563 63.6069 24.0563H63.5666C63.2445 23.9069 62.9868 23.7575 62.6808 23.553C62.0044 23.0969 61.4326 22.6014 60.9092 21.9959C60.2408 21.1309 59.6691 20.0849 59.2987 18.9289C58.9444 17.7729 58.7833 16.5146 58.7833 15.1541C58.7833 13.8487 58.9363 12.5433 59.2906 11.3951C59.6611 10.184 60.1764 9.18528 60.9012 8.27304C61.6259 7.42372 62.5117 6.71595 63.5586 6.21265C64.5249 5.77226 65.6201 5.51274 66.8602 5.45769C67.6977 5.41051 68.4224 5.45769 68.9861 5.55206L69.7511 5.70934C69.7511 5.76439 69.8075 5.76439 69.8477 5.76439C69.9122 5.81944 69.9605 5.81944 70.0088 5.81944C70.1135 5.81944 70.2262 5.88235 70.2262 5.88235C70.5322 5.96099 70.8946 6.11828 71.1925 6.27556C72.2394 6.771 73.1252 7.43158 73.8499 8.34382ZM64.2028 10.4042C63.8404 11.0098 63.5827 11.7726 63.3814 12.559L63.3895 12.5668C63.1828 13.3588 63.1252 14.2427 63.0695 15.0975V15.0975L63.0674 15.1305C63.0674 16.0349 63.1157 16.9393 63.325 17.7414C63.5344 18.5514 63.7921 19.2513 64.1545 19.849C64.5168 20.4624 64.9839 20.9107 65.4993 21.2645C66.0227 21.6106 66.6428 21.7679 67.3272 21.7679C67.9956 21.7679 68.6237 21.6184 69.1391 21.2645C69.6545 20.9107 70.1215 20.4624 70.4758 19.8647C70.8382 19.2513 71.104 18.5514 71.3053 17.7414C71.4663 16.9393 71.5791 16.0349 71.5791 15.1305V14.8317C71.5791 13.9273 71.4663 13.1173 71.257 12.3152C71.0476 11.5131 70.7899 10.8603 70.4275 10.2548C70.0652 9.68858 69.6464 9.24819 69.1391 8.90217C68.6157 8.54829 68.0439 8.40673 67.3675 8.40673C66.683 8.40673 66.071 8.60333 65.5556 8.95722C65.0322 9.30324 64.5652 9.80654 64.2028 10.4042ZM51.9627 5.53633H56.3111V25H51.9627V5.53633Z" fill="white"/>
<path fill-rule="evenodd" clip-rule="evenodd" d="M101.458 6.08514C101.091 4.91638 100.581 3.85893 99.8639 2.93664C99.1465 2.01436 98.2698 1.34649 97.2336 0.845594C96.9387 0.686579 96.58 0.527563 96.2771 0.448056C96.2771 0.448056 96.1655 0.38445 96.0619 0.38445C96.0141 0.38445 95.9583 0.38445 95.9025 0.328794C95.8627 0.328794 95.8069 0.328794 95.8069 0.273139L95.0497 0.114124C94.4917 0.0187147 93.7744 -0.0289898 92.9454 0.0187147C91.718 0.07437 90.634 0.336745 89.6775 0.781988C88.6413 1.29084 87.7646 2.0064 87.0472 2.86509C86.3299 3.78737 85.8197 4.79712 85.4531 6.02154C85.1024 7.18235 84.943 8.50217 84.943 9.822C84.943 11.1975 85.1024 12.4696 85.4611 13.6384C85.8277 14.8071 86.3936 15.8646 87.0552 16.7392C87.5733 17.3514 88.1312 17.8523 88.8087 18.3134C89.1116 18.5201 89.3666 18.6712 89.6855 18.8223H89.7253C89.7253 18.8223 89.7731 18.8223 89.7731 18.87C89.8073 18.87 89.8232 18.8859 89.8379 18.9008C89.8506 18.9136 89.8625 18.9256 89.8847 18.9256C90.4028 19.18 90.9687 19.3232 91.5825 19.4345C93.3758 19.7843 94.9142 19.5378 94.9142 19.5378C95.7351 19.4345 96.5083 19.18 97.2256 18.87C98.3017 18.3611 99.1704 17.6535 99.8958 16.7869C100.613 15.9282 101.123 14.8548 101.49 13.6861C101.841 12.5173 102 11.2452 102 9.86971C102 8.50217 101.793 7.23005 101.482 6.05334L101.458 6.08514ZM89.4464 7.19825C89.6536 6.40317 89.9086 5.63195 90.2673 5.01974C90.626 4.41548 91.0883 3.90664 91.5984 3.5568C92.1165 3.19902 92.7302 3.00025 93.3918 3.00025C94.0613 3.00025 94.6272 3.14336 95.1453 3.50115C95.6554 3.85098 96.0619 4.29622 96.4206 4.86868C96.7793 5.48089 97.0423 6.1408 97.2416 6.95178C97.4568 7.76275 97.5604 8.58168 97.5604 9.49602V9.79815C97.5604 10.7125 97.4568 11.6268 97.3053 12.4378C97.0981 13.2567 96.843 13.9643 96.4844 14.5845C96.1257 15.1888 95.6634 15.642 95.1453 15.9997C94.6352 16.3575 94.0294 16.5086 93.3519 16.5086C92.6824 16.5086 92.0766 16.3496 91.5586 15.9997C91.0405 15.642 90.5782 15.1888 90.2195 14.5686C89.8529 13.9643 89.5978 13.2567 89.3906 12.4378C89.1913 11.6268 89.1355 10.7125 89.1355 9.79815C89.1913 8.92356 89.2949 8.01718 89.4543 7.2062L89.4464 7.19825ZM78.1999 19.7127L76.2072 21.9946L76 22.2013L76.2072 25H79.2839L82.5199 21.3904V9.90946L82.4243 9.03488L78.1999 11.2134V19.7127Z" fill="white"/>
</svg>
